<svg width="389" height="252" viewBox="0 0 389 252" fill="none" xmlns="http://www.w3.org/2000/svg">
<path d="M126 252C195.588 252 252 195.588 252 126C252 56.4121 195.588 0 126 0C56.4121 0 0 56.4121 0 126C0 195.588 56.4121 252 126 252Z" fill="#312D2D"/>
<path d="M298.725 216.277C348.041 216.277 388.019 176.299 388.019 126.984C388.019 77.6681 348.041 37.6899 298.725 37.6899C249.41 37.6899 209.432 77.6681 209.432 126.984C209.432 176.299 249.41 216.277 298.725 216.277Z" fill="#D85D27"/>
<path d="M110.401 107.411C108.843 107.411 108.022 107.244 108.022 106.91C108 106.606 108.03 106.3 108.112 106.007V105.334C108.112 103.744 106.193 102.318 102.242 101.229C99.669 100.39 96.9867 99.9336 94.2811 99.8747C85.9545 99.8747 79.0007 103.487 73.3292 110.771C68.1138 117.39 65.5536 124.601 65.5536 132.476C65.5536 145.12 72.5074 151.505 86.3248 151.505C89.7276 151.525 93.1084 150.957 96.3175 149.825C97.5954 149.405 100.982 147.811 106.563 145.048C107.295 145.296 107.66 145.635 107.66 146.055C107.66 148.065 104.001 150.161 96.6833 152.34C90.3616 154.182 85.6113 155.104 82.5002 155.189C75.8218 155.271 70.1503 153.51 65.4858 149.992C60.4511 146.222 57.9811 141.277 57.8908 135.326C57.8005 124.764 62.0992 115.625 70.7012 107.917C79.2806 100.119 89.3637 96.2668 100.892 96.2668C103.683 96.2726 106.457 96.6957 109.123 97.5221C112.876 98.6104 114.705 100.204 114.705 102.218C114.7 104.494 112.686 107.411 110.401 107.411Z" fill="white"/>
<path d="M140.129 144.462C138.323 148.823 137.42 150.752 137.42 150.246C137.42 150.58 137.605 150.747 137.971 150.747C138.702 150.747 140.621 149.993 141.263 149.993C141.814 149.993 142.089 150.327 142.089 151C141.637 151.081 139.434 151.835 135.501 153.095C132.755 153.93 130.927 154.35 129.92 154.35L129.279 153.343C130.836 151.754 132.665 148.733 134.584 144.209C136.503 139.684 137.515 136.329 137.515 134.153C137.515 132.473 136.964 131.638 135.867 131.638C133.672 131.638 129.996 134.654 124.98 140.605C121.318 144.881 118.301 148.733 116.012 152.346C115.19 152.594 113.452 153.249 110.891 154.355C110.504 154.182 110.16 153.924 109.885 153.601C111.438 150.919 113.908 145.053 117.475 136.085C121.413 126.111 124.063 118.565 125.255 113.454C126.447 108.342 127.084 104.4 127.084 101.637C125.987 101.971 124.614 102.391 122.966 102.991C122.785 102.991 122.69 102.653 122.69 101.899C128.913 99.0493 132.299 97.627 132.755 97.627C133.031 97.627 133.397 97.8753 133.659 98.381C132.453 107.656 127.974 122.67 120.017 143.373C121.846 141.445 124.682 138.51 128.434 134.568C132.277 130.631 135.934 128.621 139.411 128.621C141.789 128.621 142.978 130.548 142.978 134.401C142.978 136.749 142.066 140.104 140.129 144.462Z" fill="white"/>
<path d="M155.769 150.826C156.224 150.826 157.688 149.905 160.163 148.062C160.285 148.047 160.409 148.06 160.526 148.1C160.642 148.139 160.748 148.206 160.836 148.293C160.923 148.38 160.989 148.486 161.029 148.602C161.069 148.719 161.081 148.843 161.066 148.965L155.394 152.989C154.252 153.831 152.88 154.303 151.462 154.343C149.723 154.343 148.35 152.501 148.35 150.907C148.35 148.144 150.274 142.192 154.22 133.053L150.558 133.893C150.107 133.893 149.827 133.473 149.827 132.538C151.182 132.285 153.394 131.531 156.415 130.357C159.526 129.188 161.174 128.601 161.445 128.601C161.546 128.59 161.648 128.603 161.743 128.637C161.838 128.672 161.924 128.727 161.994 128.8C162.065 128.873 162.118 128.96 162.149 129.056C162.181 129.152 162.19 129.254 162.177 129.355C161.274 130.61 159.707 133.793 157.603 138.909C155.318 144.355 154.126 147.791 154.126 149.051C154.112 150.243 154.672 150.826 155.769 150.826ZM162.267 120.653C160.709 121.66 158.605 122.161 156.045 122.161C155.898 121.934 155.803 121.676 155.769 121.407C157.232 120.653 158.149 119.899 158.605 119.15C158.971 118.563 159.246 117.389 159.337 115.628C160.163 115.628 162.908 114.273 164.276 114.273C164.827 114.273 165.103 114.693 165.103 115.533C165.151 116.565 164.911 117.591 164.411 118.495C163.91 119.399 163.168 120.146 162.267 120.653V120.653Z" fill="white"/>
<path d="M188.516 132.722C186.872 133.562 185.77 133.981 185.224 133.981C185.039 133.981 184.398 133.643 183.21 132.889C182.022 132.135 181.196 131.715 180.559 131.715C173.881 131.715 170.219 135.991 170.219 142.362C170.219 147.329 174.518 150.824 179.918 150.824C181.161 150.87 182.393 150.582 183.485 149.989C184.127 149.736 185.59 148.729 187.874 147.14C188.516 146.805 188.881 146.973 188.976 147.641C189.067 149.068 187.143 150.657 183.106 152.251C179.539 153.678 176.884 154.346 174.978 154.346C169.397 154.346 164.547 150.576 164.457 145.464C164.362 141.021 166.376 137.079 170.327 133.724C174.355 130.288 178.839 128.613 183.779 128.613C185.134 128.636 186.483 128.804 187.802 129.114C189.906 129.534 191.004 130.017 191.004 130.789C191.08 131.213 190.254 131.882 188.516 132.722Z" fill="white"/>
<path d="M262.95 128.366C258.561 135.659 253.526 141.691 247.855 146.555C241.082 152.253 234.679 155.102 228.551 155.102C222.424 155.102 220.135 153.174 220.135 147.562C220.135 144.961 221.141 142.111 223.061 139.009C224.156 137.333 226.536 134.322 230.2 129.978L239.348 127.21C239.348 127.964 239.163 128.384 238.797 128.637C236.512 130.06 233.947 132.661 230.931 136.264C227.269 140.707 225.44 144.392 225.44 147.241C225.44 150.176 228.917 152.944 232.119 152.944C237.885 152.944 243.461 149.842 249.043 143.556C253.384 138.631 256.934 133.06 259.564 127.043C262.585 120.338 264.138 114.639 264.233 109.884L270.554 106.782C270.247 113.194 267.777 120.401 262.95 128.366ZM278.687 102.046C280.829 105.12 281.978 108.778 281.979 112.526C281.979 117.638 281.527 124.266 280.516 132.394C279.612 140.021 279.161 144.211 279.238 145.037C282.805 139.921 285.275 136.237 286.828 134.056C290.486 128.944 293.692 124.754 296.437 121.566C304.944 111.686 312.621 104.041 319.651 98.7808L325.779 97.354C326.23 97.941 326.33 98.3609 326.054 98.6093C321.57 104.394 317.086 113.113 312.508 124.596C308.119 135.659 305.924 143.453 305.924 148.076C305.924 150.59 307.021 151.847 309.216 151.847C310.223 151.847 312.968 150.257 317.344 146.988L318.441 147.824C313.777 151.093 311.121 152.94 310.313 153.441C308.028 154.696 306.105 155.369 304.551 155.369C302.081 155.369 299.882 153.608 299.882 151.346C299.882 145.647 302.081 137.013 306.47 125.363C310.223 115.389 313.609 108.01 316.535 103.238C308.76 110.011 302.262 116.482 297.141 122.6C294.667 125.535 289.361 132.909 281.22 144.559C280.034 146.32 278.845 148.835 277.653 152.104L271.891 155.039C273.625 143.723 274.632 137.519 274.727 136.431C275.651 130.214 276.14 123.94 276.19 117.656C276.19 113.718 275.738 110.363 274.727 107.6C273.259 103.405 270.884 101.31 267.502 101.31C265.763 101.31 263.384 101.982 260.548 103.323C258.078 104.412 256.891 104.917 256.891 104.832C256.891 103.743 259.175 101.142 263.664 97.1192C265.476 96.7814 267.312 96.5851 269.155 96.5321C272.993 96.4328 276.194 98.2751 278.664 102.046H278.687Z" fill="white"/>
<path d="M329.604 150.828C330.065 150.828 331.529 149.907 333.998 148.065C334.12 148.05 334.244 148.064 334.36 148.104C334.476 148.144 334.582 148.21 334.669 148.297C334.756 148.384 334.822 148.49 334.862 148.606C334.902 148.722 334.916 148.846 334.901 148.968L329.225 152.991C328.083 153.833 326.711 154.306 325.292 154.346C323.554 154.346 322.181 152.504 322.181 150.91C322.181 148.146 324.105 142.195 328.051 133.056L324.389 133.895C323.937 133.895 323.657 133.475 323.657 132.541C325.012 132.288 327.229 131.534 330.246 130.36C333.357 129.19 335.005 128.603 335.28 128.603C335.381 128.593 335.483 128.605 335.578 128.64C335.673 128.674 335.759 128.73 335.829 128.803C335.9 128.875 335.953 128.963 335.984 129.059C336.016 129.155 336.025 129.257 336.012 129.357C335.109 130.613 333.542 133.796 331.438 138.912C329.148 144.358 327.961 147.794 327.961 149.054C327.961 150.246 328.507 150.828 329.604 150.828ZM336.089 120.656C334.535 121.663 332.427 122.164 329.866 122.164C329.721 121.936 329.626 121.679 329.591 121.41C331.058 120.656 331.97 119.902 332.427 119.152C332.792 118.565 333.068 117.391 333.163 115.63C333.984 115.63 336.73 114.276 338.102 114.276C338.649 114.276 338.924 114.696 338.924 115.535C338.973 116.568 338.733 117.593 338.232 118.498C337.732 119.402 336.989 120.149 336.089 120.656V120.656Z" fill="white"/>
<path d="M362.358 132.725C360.714 133.564 359.617 133.984 359.066 133.984C358.881 133.984 358.244 133.646 357.052 132.892C355.86 132.138 355.043 131.718 354.401 131.718C347.723 131.718 344.061 135.994 344.061 142.365C344.061 147.332 348.364 150.827 353.76 150.827C355.003 150.873 356.235 150.585 357.328 149.992C357.969 149.739 359.432 148.732 361.721 147.143C362.359 146.808 362.725 146.975 362.818 147.644C362.909 149.071 360.99 150.66 356.948 152.254C353.381 153.681 350.726 154.349 348.82 154.349C343.239 154.349 338.39 150.579 338.299 145.467C338.209 141.024 340.218 137.082 344.169 133.727C348.193 130.291 352.677 128.615 357.617 128.615C358.972 128.639 360.32 128.807 361.64 129.117C363.744 129.537 364.846 130.02 364.846 130.792C364.923 131.216 364.087 131.885 362.358 132.725Z" fill="white"/>
</svg>
